<svg width="668" height="664" viewBox="0 0 668 664" fill="none" xmlns="http://www.w3.org/2000/svg">
<path d="M160.392 606.222V627.746H119.078V608.54C119.078 604.235 116.391 601.09 111.017 599.104C105.866 597.007 99.2607 595.958 91.1993 595.958C63.707 595.958 58.3327 596.4 53.4064 597.283C48.7039 598.055 44.6733 598.993 41.3144 600.097V627.746H0V598.772C0 596.124 1.11963 580.603 3.35889 578.947C5.59815 577.181 8.95704 575.581 13.4356 574.146C20.3773 571.829 28.8865 569.952 38.9631 568.518C49.2637 567.083 59.9002 566.366 92.5429 566.366C103.515 566.366 113.592 567.193 122.773 568.849C131.954 570.504 139.455 572.932 145.277 576.133C146.845 576.795 148.3 577.457 149.644 578.119C150.988 578.782 152.107 592.923 153.003 593.806C155.018 595.462 156.698 597.393 158.041 599.6C159.609 601.697 160.392 603.904 160.392 606.222ZM279.135 607.877V627.746H237.82V608.54C237.82 604.235 235.357 601.09 230.431 599.104C225.504 597.007 197.228 595.958 188.943 595.958C182.897 595.958 176.963 596.565 171.141 597.779C165.543 598.993 160.728 600.593 156.698 602.58L135.873 576.795C142.814 573.926 150.988 571.498 160.392 569.511C169.797 567.414 180.994 566.366 193.981 566.366C205.849 566.366 238.268 567.304 247.897 569.18C257.526 571.056 265.139 574.091 270.737 578.285C276.336 582.479 279.135 601.256 279.135 607.877ZM0 619.799H41.3144V662.676C39.523 663.007 36.9478 663.283 33.5889 663.503C30.23 663.834 26.5352 664 22.5046 664C14.8911 664 9.18097 663.338 5.37423 662.014C1.79141 660.579 0 658.096 0 654.564V619.799ZM119.078 619.799H160.392V662.676C158.601 663.007 155.914 663.283 152.331 663.503C148.972 663.834 145.389 664 141.583 664C133.745 664 128.035 663.338 124.452 662.014C120.87 660.579 119.078 658.096 119.078 654.564V619.799ZM237.82 619.799H279.135V662.676C277.567 663.007 274.992 663.283 271.409 663.503C268.05 663.834 264.468 664 260.661 664C252.823 664 247.001 663.338 243.195 662.014C239.612 660.579 237.82 658.096 237.82 654.564V619.799Z" fill="#E6EDF6"/>
<path d="M320.467 581.839C320.467 578.638 322.707 571.478 327.185 569.271C331.888 567.063 337.71 565.96 344.651 565.96C351.817 565.96 357.527 567.063 361.782 569.271C366.26 571.478 368.5 578.638 368.5 581.839C368.5 584.929 366.26 592.089 361.782 594.407C357.527 596.614 351.817 597.718 344.651 597.718C337.71 597.718 331.888 596.614 327.185 594.407C322.707 592.089 320.467 584.929 320.467 581.839ZM323.826 619.303H365.477V662.676C363.685 663.007 361.11 663.283 357.751 663.503C354.392 663.834 350.697 664 346.667 664C339.053 664 333.343 663.338 329.536 662.014C325.73 660.579 323.826 658.096 323.826 654.564V619.303ZM365.477 629.732H323.826V605.843C325.618 605.512 328.193 605.236 331.552 605.015C335.135 604.684 338.941 604.518 342.972 604.518C350.809 604.518 356.519 605.236 360.102 606.671C363.685 607.995 365.477 610.478 365.477 614.12V629.732Z" fill="#E6EDF6"/>
<path d="M578.517 609.202V627.911H537.203V610.03C537.203 605.174 534.404 601.642 528.805 599.435C523.207 597.117 515.706 595.958 506.301 595.958C499.359 595.958 471.419 596.4 465.821 597.283C460.447 598.055 455.632 598.993 451.378 600.097V627.911H410.063V598.772C410.063 596.124 411.183 580.603 413.422 578.947C415.661 577.181 419.02 575.581 423.499 574.146C430.217 571.939 438.838 570.118 449.362 568.683C460.111 567.138 493.649 566.366 506.637 566.366C529.253 566.366 546.831 568.849 559.371 573.815C572.135 578.781 578.517 599.49 578.517 609.202ZM410.063 619.799H451.378V662.676C449.586 663.007 447.011 663.283 443.652 663.503C440.293 663.834 436.598 664 432.568 664C424.954 664 419.244 663.338 415.437 662.014C411.855 660.579 410.063 658.096 410.063 654.564V619.799ZM537.203 619.799H578.517V662.676C576.95 663.007 574.374 663.283 570.792 663.503C567.433 663.834 563.85 664 560.043 664C552.206 664 546.384 663.338 542.577 662.014C538.994 660.579 537.203 658.096 537.203 654.564V619.799Z" fill="#E6EDF6"/>
<path d="M619.968 581.839C619.968 578.638 622.207 571.478 626.686 569.271C631.388 567.063 637.21 565.96 644.152 565.96C651.318 565.96 657.028 567.063 661.282 569.271C665.761 571.478 668 578.638 668 581.839C668 584.929 665.761 592.089 661.282 594.407C657.028 596.614 651.318 597.718 644.152 597.718C637.21 597.718 631.388 596.614 626.686 594.407C622.207 592.089 619.968 584.929 619.968 581.839ZM623.327 619.303H664.977V662.676C663.186 663.007 660.61 663.283 657.252 663.503C653.893 663.834 650.198 664 646.167 664C638.554 664 632.844 663.338 629.037 662.014C625.23 660.579 623.327 658.096 623.327 654.564V619.303ZM664.977 629.732H623.327V605.843C625.118 605.512 627.693 605.236 631.052 605.015C634.635 604.684 638.442 604.518 642.472 604.518C650.31 604.518 656.02 605.236 659.603 606.671C663.186 607.995 664.977 610.478 664.977 614.12V629.732Z" fill="#E6EDF6"/>
<path fill-rule="evenodd" clip-rule="evenodd" d="M35.6267 0C15.9506 0 0 15.9615 0 35.651V521.396C0 541.086 15.9506 557.047 35.6267 557.047H75.7067C95.3827 557.047 111.333 541.085 111.333 521.396V128.492C111.333 108.803 127.284 92.8412 146.96 92.8412H222.667C222.667 92.8412 361.833 92.8412 361.833 278.524C361.833 464.206 222.667 464.206 222.667 464.206C198.168 464.206 183.036 490.95 195.64 511.972L212.289 539.738C218.727 550.477 230.324 557.047 242.838 557.047H445.333C445.333 557.047 668 557.047 668 394.575C668 339.112 642.052 302.583 607.873 278.524C642.052 254.464 668 217.935 668 162.472C668 0 445.333 0 445.333 0C420.835 0 405.702 26.7446 418.307 47.7664L435.174 75.8969C441.494 86.4377 452.781 92.9193 464.965 94.4911C496.922 98.6142 556.667 112.945 556.667 162.472C556.667 230.081 503.257 225.524 470.423 230.081C443.206 1.69997e-05 222.667 0 222.667 0H35.6267ZM556.667 394.575C556.667 462.184 445.333 464.206 445.333 464.206H416.95C443.04 431.409 463.318 387.027 470.423 326.966C503.257 331.523 556.667 326.966 556.667 394.575Z" fill="url(#paint0_linear_2009_42)"/>
<defs>
<linearGradient id="paint0_linear_2009_42" x1="0" y1="278.523" x2="668" y2="278.523" gradientUnits="userSpaceOnUse">
<stop stop-color="#2496FA"/>
<stop offset="0.413462" stop-color="#3041D8"/>
<stop offset="0.822115" stop-color="#55009A"/>
</linearGradient>
</defs>
</svg>
