<svg width="790" height="181" viewBox="0 0 790 181" fill="none" xmlns="http://www.w3.org/2000/svg">
<path d="M61.875 37.4L61.05 9.07499H138.325C139.242 10.3583 140.067 12.2833 140.8 14.85C141.533 17.2333 141.9 19.8 141.9 22.55C141.9 27.3167 140.8 30.9833 138.6 33.55C136.4 36.1167 133.375 37.4 129.525 37.4H61.875ZM86.35 9.07499L86.9 37.4H9.625C8.70833 35.9333 7.88333 34.0083 7.15 31.625C6.41667 29.2417 6.05 26.5833 6.05 23.65C6.05 18.7 7.15 15.0333 9.35 12.65C11.55 10.2667 14.575 9.07499 18.425 9.07499H86.35ZM56.375 29.975H91.025V175.45C89.5583 176 87.2667 176.458 84.15 176.825C81.2167 177.375 78.1917 177.65 75.075 177.65C68.2917 177.65 63.4333 176.458 60.5 174.075C57.75 171.508 56.375 167.292 56.375 161.425V29.975ZM275.986 110.825C275.986 124.942 273.236 137.225 267.736 147.675C262.236 157.942 254.444 165.917 244.361 171.6C234.461 177.1 222.728 179.85 209.161 179.85C195.594 179.85 183.769 177.1 173.686 171.6C163.603 165.917 155.719 157.942 150.036 147.675C144.536 137.408 141.786 125.125 141.786 110.825C141.786 96.7083 144.628 84.5167 150.311 74.25C155.994 63.9833 163.878 56.1 173.961 50.6C184.044 44.9167 195.778 42.075 209.161 42.075C222.544 42.075 234.186 44.9167 244.086 50.6C254.169 56.1 261.961 64.075 267.461 74.525C273.144 84.7917 275.986 96.8917 275.986 110.825ZM209.161 69.025C199.078 69.025 191.103 72.6917 185.236 80.025C179.553 87.3583 176.711 97.625 176.711 110.825C176.711 124.392 179.553 134.842 185.236 142.175C190.919 149.325 198.894 152.9 209.161 152.9C219.244 152.9 227.128 149.233 232.811 141.9C238.494 134.567 241.336 124.208 241.336 110.825C241.336 97.8083 238.494 87.6333 232.811 80.3C227.128 72.7833 219.244 69.025 209.161 69.025ZM425.129 91.025V117.7H391.304V92.4C391.304 84.3333 389.012 78.4667 384.429 74.8C379.845 70.95 373.704 69.025 366.004 69.025C360.32 69.025 355.187 69.7583 350.604 71.225C346.204 72.5083 342.262 74.0667 338.779 75.9V117.7H304.954V73.7C304.954 69.3 305.87 65.725 307.704 62.975C309.537 60.0417 312.287 57.3833 315.954 55C321.454 51.3333 328.512 48.3083 337.129 45.925C345.929 43.3583 355.645 42.075 366.279 42.075C384.795 42.075 399.187 46.2 409.454 54.45C419.904 62.7 425.129 74.8917 425.129 91.025ZM304.954 104.225H338.779V175.45C337.312 176 335.204 176.458 332.454 176.825C329.704 177.375 326.679 177.65 323.379 177.65C317.145 177.65 312.47 176.55 309.354 174.35C306.42 171.967 304.954 167.842 304.954 161.975V104.225ZM391.304 104.225H425.129V175.45C423.845 176 421.737 176.458 418.804 176.825C416.054 177.375 413.12 177.65 410.004 177.65C403.587 177.65 398.82 176.55 395.704 174.35C392.77 171.967 391.304 167.842 391.304 161.975V104.225ZM511.865 154.275C517.365 154.275 522.315 153.725 526.715 152.625C531.115 151.525 534.324 150.333 536.34 149.05V117.7L509.115 120.45C501.599 121 495.824 122.65 491.79 125.4C487.94 127.967 486.015 131.817 486.015 136.95C486.015 142.267 488.124 146.483 492.34 149.6C496.557 152.717 503.065 154.275 511.865 154.275ZM510.49 42.075C528.457 42.075 542.757 45.925 553.39 53.625C564.024 61.1417 569.34 73.0583 569.34 89.375V152.625C569.34 157.025 568.24 160.508 566.04 163.075C564.024 165.642 561.365 167.933 558.065 169.95C552.932 172.883 546.424 175.267 538.54 177.1C530.657 179.117 521.765 180.125 511.865 180.125C493.532 180.125 479.14 176.642 468.69 169.675C458.24 162.525 453.015 151.983 453.015 138.05C453.015 125.767 456.865 116.417 464.565 110C472.449 103.4 483.815 99.3667 498.665 97.9L536.065 94.05V89.1C536.065 81.7667 533.499 76.45 528.365 73.15C523.415 69.85 516.357 68.2 507.19 68.2C500.04 68.2 493.074 69.1167 486.29 70.95C479.507 72.7833 473.457 74.9833 468.14 77.55C466.307 76.0833 464.657 74.0667 463.19 71.5C461.724 68.9333 460.99 66.275 460.99 63.525C460.99 56.925 464.657 52.0667 471.99 48.95C477.124 46.5667 483.082 44.825 489.865 43.725C496.832 42.625 503.707 42.075 510.49 42.075Z" fill="#000523"/>
<path d="M655.499 161.685V167.39H644.552V162.3C644.552 161.159 643.84 160.325 642.416 159.799C641.051 159.243 639.301 158.965 637.165 158.965C629.88 158.965 628.456 159.082 627.151 159.316C625.905 159.521 624.837 159.769 623.947 160.062V167.39H613V159.711C613 159.009 613.297 154.895 613.89 154.456C614.483 153.988 615.373 153.564 616.56 153.183C618.399 152.569 620.654 152.072 623.324 151.691C626.053 151.311 628.872 151.121 637.521 151.121C640.428 151.121 643.098 151.34 645.531 151.779C647.964 152.218 649.952 152.862 651.494 153.71C651.91 153.885 652.295 154.061 652.651 154.236C653.007 154.412 653.304 158.16 653.541 158.394C654.075 158.833 654.52 159.345 654.876 159.93C655.292 160.486 655.499 161.071 655.499 161.685ZM686.962 162.124V167.39H676.015V162.3C676.015 161.159 675.363 160.325 674.057 159.799C672.752 159.243 665.26 158.965 663.064 158.965C661.462 158.965 659.89 159.126 658.347 159.447C656.864 159.769 655.588 160.193 654.52 160.72L649.002 153.885C650.842 153.125 653.007 152.481 655.499 151.955C657.991 151.399 660.958 151.121 664.399 151.121C667.544 151.121 676.134 151.37 678.685 151.867C681.237 152.364 683.254 153.169 684.737 154.28C686.221 155.392 686.962 160.369 686.962 162.124ZM613 165.284H623.947V176.649C623.472 176.737 622.79 176.81 621.9 176.868C621.01 176.956 620.031 177 618.963 177C616.946 177 615.433 176.824 614.424 176.473C613.475 176.093 613 175.435 613 174.499V165.284ZM644.552 165.284H655.499V176.649C655.025 176.737 654.313 176.81 653.363 176.868C652.473 176.956 651.524 177 650.515 177C648.438 177 646.925 176.824 645.976 176.473C645.027 176.093 644.552 175.435 644.552 174.499V165.284ZM676.015 165.284H686.962V176.649C686.547 176.737 685.865 176.81 684.915 176.868C684.025 176.956 683.076 177 682.067 177C679.991 177 678.448 176.824 677.439 176.473C676.49 176.093 676.015 175.435 676.015 174.499V165.284Z" fill="#000523"/>
<path d="M697.914 155.222C697.914 154.374 698.508 152.476 699.694 151.891C700.94 151.306 702.483 151.013 704.322 151.013C706.221 151.013 707.734 151.306 708.861 151.891C710.048 152.476 710.641 154.374 710.641 155.222C710.641 156.041 710.048 157.939 708.861 158.554C707.734 159.139 706.221 159.431 704.322 159.431C702.483 159.431 700.94 159.139 699.694 158.554C698.508 157.939 697.914 156.041 697.914 155.222ZM698.804 165.153H709.84V176.649C709.366 176.737 708.683 176.81 707.793 176.868C706.903 176.956 705.924 177 704.856 177C702.839 177 701.326 176.824 700.317 176.473C699.309 176.093 698.804 175.435 698.804 174.499V165.153ZM709.84 167.917H698.804V161.585C699.279 161.497 699.961 161.424 700.851 161.365C701.801 161.278 702.809 161.234 703.877 161.234C705.954 161.234 707.467 161.424 708.416 161.804C709.366 162.155 709.84 162.813 709.84 163.779V167.917Z" fill="#000523"/>
<path d="M766.29 162.475V167.434H755.343V162.695C755.343 161.407 754.601 160.471 753.118 159.886C751.634 159.272 749.647 158.965 747.155 158.965C745.315 158.965 737.912 159.082 736.429 159.316C735.005 159.521 733.729 159.769 732.602 160.062V167.434H721.654V159.711C721.654 159.009 721.951 154.895 722.544 154.456C723.138 153.988 724.028 153.564 725.214 153.183C726.995 152.598 729.279 152.116 732.068 151.735C734.916 151.326 743.802 151.121 747.244 151.121C753.236 151.121 757.894 151.779 761.217 153.096C764.599 154.412 766.29 159.901 766.29 162.475ZM721.654 165.284H732.602V176.649C732.127 176.737 731.445 176.81 730.555 176.868C729.665 176.956 728.686 177 727.618 177C725.6 177 724.087 176.824 723.078 176.473C722.129 176.093 721.654 175.435 721.654 174.499V165.284ZM755.343 165.284H766.29V176.649C765.874 176.737 765.192 176.81 764.243 176.868C763.353 176.956 762.403 177 761.395 177C759.318 177 757.775 176.824 756.767 176.473C755.817 176.093 755.343 175.435 755.343 174.499V165.284Z" fill="#000523"/>
<path d="M777.273 155.222C777.273 154.374 777.866 152.476 779.053 151.891C780.299 151.306 781.842 151.013 783.681 151.013C785.58 151.013 787.093 151.306 788.22 151.891C789.407 152.476 790 154.374 790 155.222C790 156.041 789.407 157.939 788.22 158.554C787.093 159.139 785.58 159.431 783.681 159.431C781.842 159.431 780.299 159.139 779.053 158.554C777.866 157.939 777.273 156.041 777.273 155.222ZM778.163 165.153H789.199V176.649C788.724 176.737 788.042 176.81 787.152 176.868C786.262 176.956 785.283 177 784.215 177C782.198 177 780.685 176.824 779.676 176.473C778.667 176.093 778.163 175.435 778.163 174.499V165.153ZM789.199 167.917H778.163V161.585C778.638 161.497 779.32 161.424 780.21 161.365C781.159 161.278 782.168 161.234 783.236 161.234C785.313 161.234 786.826 161.424 787.775 161.804C788.724 162.155 789.199 162.813 789.199 163.779V167.917Z" fill="#000523"/>
<path fill-rule="evenodd" clip-rule="evenodd" d="M622.44 1C617.226 1 613 5.23076 613 10.4497V139.201C613 144.42 617.226 148.651 622.44 148.651H633.06C638.274 148.651 642.5 144.42 642.5 139.201V35.0582C642.5 29.8393 646.726 25.6085 651.94 25.6085H672C672 25.6085 708.875 25.6085 708.875 74.8255C708.875 124.042 672 124.042 672 124.042C665.509 124.042 661.499 131.131 664.839 136.703L669.25 144.063C670.956 146.909 674.029 148.651 677.345 148.651H731C731 148.651 790 148.651 790 105.586C790 90.8852 783.125 81.2027 774.068 74.8255C783.125 68.4483 790 58.7658 790 44.0649C790 1 731 1 731 1C724.509 1 720.499 8.08892 723.839 13.661L728.308 21.1173C729.983 23.9112 732.973 25.6292 736.202 26.0458C744.669 27.1387 760.5 30.9373 760.5 44.0649C760.5 61.9853 746.348 60.7775 737.648 61.9853C730.436 1 672 1 672 1H622.44ZM760.5 105.586C760.5 123.507 731 124.042 731 124.042H723.479C730.392 115.349 735.765 103.585 737.648 87.6657C746.348 88.8735 760.5 87.6657 760.5 105.586Z" fill="url(#paint0_linear_11_107)"/>
<defs>
<linearGradient id="paint0_linear_11_107" x1="613" y1="74.8255" x2="790" y2="74.8255" gradientUnits="userSpaceOnUse">
<stop stop-color="#2496FA"/>
<stop offset="0.413462" stop-color="#3041D8"/>
<stop offset="0.822115" stop-color="#55009A"/>
</linearGradient>
</defs>
</svg>
