<svg width="790" height="181" viewBox="0 0 790 181" fill="none" xmlns="http://www.w3.org/2000/svg">
<path d="M61.875 37.4L61.05 9.07499H138.325C139.242 10.3583 140.067 12.2833 140.8 14.85C141.533 17.2333 141.9 19.8 141.9 22.55C141.9 27.3167 140.8 30.9833 138.6 33.55C136.4 36.1167 133.375 37.4 129.525 37.4H61.875ZM86.35 9.07499L86.9 37.4H9.625C8.70833 35.9333 7.88333 34.0083 7.15 31.625C6.41667 29.2417 6.05 26.5833 6.05 23.65C6.05 18.7 7.15 15.0333 9.35 12.65C11.55 10.2667 14.575 9.07499 18.425 9.07499H86.35ZM56.375 29.975H91.025V175.45C89.5583 176 87.2667 176.458 84.15 176.825C81.2167 177.375 78.1917 177.65 75.075 177.65C68.2917 177.65 63.4333 176.458 60.5 174.075C57.75 171.508 56.375 167.292 56.375 161.425V29.975ZM275.986 110.825C275.986 124.942 273.236 137.225 267.736 147.675C262.236 157.942 254.444 165.917 244.361 171.6C234.461 177.1 222.728 179.85 209.161 179.85C195.594 179.85 183.769 177.1 173.686 171.6C163.603 165.917 155.719 157.942 150.036 147.675C144.536 137.408 141.786 125.125 141.786 110.825C141.786 96.7083 144.628 84.5167 150.311 74.25C155.994 63.9833 163.878 56.1 173.961 50.6C184.044 44.9167 195.778 42.075 209.161 42.075C222.544 42.075 234.186 44.9167 244.086 50.6C254.169 56.1 261.961 64.075 267.461 74.525C273.144 84.7917 275.986 96.8917 275.986 110.825ZM209.161 69.025C199.078 69.025 191.103 72.6917 185.236 80.025C179.553 87.3583 176.711 97.625 176.711 110.825C176.711 124.392 179.553 134.842 185.236 142.175C190.919 149.325 198.894 152.9 209.161 152.9C219.244 152.9 227.128 149.233 232.811 141.9C238.494 134.567 241.336 124.208 241.336 110.825C241.336 97.8083 238.494 87.6333 232.811 80.3C227.128 72.7833 219.244 69.025 209.161 69.025ZM425.129 91.025V117.7H391.304V92.4C391.304 84.3333 389.012 78.4667 384.429 74.8C379.845 70.95 373.704 69.025 366.004 69.025C360.32 69.025 355.187 69.7583 350.604 71.225C346.204 72.5083 342.262 74.0667 338.779 75.9V117.7H304.954V73.7C304.954 69.3 305.87 65.725 307.704 62.975C309.537 60.0417 312.287 57.3833 315.954 55C321.454 51.3333 328.512 48.3083 337.129 45.925C345.929 43.3583 355.645 42.075 366.279 42.075C384.795 42.075 399.187 46.2 409.454 54.45C419.904 62.7 425.129 74.8917 425.129 91.025ZM304.954 104.225H338.779V175.45C337.312 176 335.204 176.458 332.454 176.825C329.704 177.375 326.679 177.65 323.379 177.65C317.145 177.65 312.47 176.55 309.354 174.35C306.42 171.967 304.954 167.842 304.954 161.975V104.225ZM391.304 104.225H425.129V175.45C423.845 176 421.737 176.458 418.804 176.825C416.054 177.375 413.12 177.65 410.004 177.65C403.587 177.65 398.82 176.55 395.704 174.35C392.77 171.967 391.304 167.842 391.304 161.975V104.225ZM511.865 154.275C517.365 154.275 522.315 153.725 526.715 152.625C531.115 151.525 534.324 150.333 536.34 149.05V117.7L509.115 120.45C501.599 121 495.824 122.65 491.79 125.4C487.94 127.967 486.015 131.817 486.015 136.95C486.015 142.267 488.124 146.483 492.34 149.6C496.557 152.717 503.065 154.275 511.865 154.275ZM510.49 42.075C528.457 42.075 542.757 45.925 553.39 53.625C564.024 61.1417 569.34 73.0583 569.34 89.375V152.625C569.34 157.025 568.24 160.508 566.04 163.075C564.024 165.642 561.365 167.933 558.065 169.95C552.932 172.883 546.424 175.267 538.54 177.1C530.657 179.117 521.765 180.125 511.865 180.125C493.532 180.125 479.14 176.642 468.69 169.675C458.24 162.525 453.015 151.983 453.015 138.05C453.015 125.767 456.865 116.417 464.565 110C472.449 103.4 483.815 99.3667 498.665 97.9L536.065 94.05V89.1C536.065 81.7667 533.499 76.45 528.365 73.15C523.415 69.85 516.357 68.2 507.19 68.2C500.04 68.2 493.074 69.1167 486.29 70.95C479.507 72.7833 473.457 74.9833 468.14 77.55C466.307 76.0833 464.657 74.0667 463.19 71.5C461.724 68.9333 460.99 66.275 460.99 63.525C460.99 56.925 464.657 52.0667 471.99 48.95C477.124 46.5667 483.082 44.825 489.865 43.725C496.832 42.625 503.707 42.075 510.49 42.075Z" fill="#E6EDF6"/>
<path d="M655.499 164.685V170.39H644.552V165.3C644.552 164.159 643.84 163.325 642.416 162.799C641.051 162.243 639.301 161.965 637.165 161.965C629.88 161.965 628.456 162.082 627.151 162.316C625.905 162.521 624.837 162.769 623.947 163.062V170.39H613V162.711C613 162.009 613.297 157.895 613.89 157.456C614.483 156.988 615.373 156.564 616.56 156.183C618.399 155.569 620.654 155.072 623.324 154.691C626.053 154.311 628.872 154.121 637.521 154.121C640.428 154.121 643.098 154.34 645.531 154.779C647.964 155.218 649.952 155.862 651.494 156.71C651.91 156.885 652.295 157.061 652.651 157.236C653.007 157.412 653.304 161.16 653.541 161.394C654.075 161.833 654.52 162.345 654.876 162.93C655.292 163.486 655.499 164.071 655.499 164.685ZM686.962 165.124V170.39H676.015V165.3C676.015 164.159 675.363 163.325 674.057 162.799C672.752 162.243 665.26 161.965 663.064 161.965C661.462 161.965 659.89 162.126 658.347 162.447C656.864 162.769 655.588 163.193 654.52 163.72L649.002 156.885C650.842 156.125 653.007 155.481 655.499 154.955C657.991 154.399 660.958 154.121 664.399 154.121C667.544 154.121 676.134 154.37 678.685 154.867C681.237 155.364 683.254 156.169 684.737 157.28C686.221 158.392 686.962 163.369 686.962 165.124ZM613 168.284H623.947V179.649C623.472 179.737 622.79 179.81 621.9 179.868C621.01 179.956 620.031 180 618.963 180C616.946 180 615.433 179.824 614.424 179.473C613.475 179.093 613 178.435 613 177.499V168.284ZM644.552 168.284H655.499V179.649C655.025 179.737 654.313 179.81 653.363 179.868C652.473 179.956 651.524 180 650.515 180C648.438 180 646.925 179.824 645.976 179.473C645.027 179.093 644.552 178.435 644.552 177.499V168.284ZM676.015 168.284H686.962V179.649C686.547 179.737 685.865 179.81 684.915 179.868C684.025 179.956 683.076 180 682.067 180C679.991 180 678.448 179.824 677.439 179.473C676.49 179.093 676.015 178.435 676.015 177.499V168.284Z" fill="#E6EDF6"/>
<path d="M697.914 158.222C697.914 157.374 698.508 155.476 699.694 154.891C700.94 154.306 702.483 154.013 704.322 154.013C706.221 154.013 707.734 154.306 708.861 154.891C710.048 155.476 710.641 157.374 710.641 158.222C710.641 159.041 710.048 160.939 708.861 161.554C707.734 162.139 706.221 162.431 704.322 162.431C702.483 162.431 700.94 162.139 699.694 161.554C698.508 160.939 697.914 159.041 697.914 158.222ZM698.804 168.153H709.84V179.649C709.366 179.737 708.683 179.81 707.793 179.868C706.903 179.956 705.924 180 704.856 180C702.839 180 701.326 179.824 700.317 179.473C699.309 179.093 698.804 178.435 698.804 177.499V168.153ZM709.84 170.917H698.804V164.585C699.279 164.497 699.961 164.424 700.851 164.365C701.801 164.278 702.809 164.234 703.877 164.234C705.954 164.234 707.467 164.424 708.416 164.804C709.366 165.155 709.84 165.813 709.84 166.779V170.917Z" fill="#E6EDF6"/>
<path d="M766.29 165.475V170.434H755.343V165.695C755.343 164.407 754.601 163.471 753.118 162.886C751.634 162.272 749.647 161.965 747.155 161.965C745.315 161.965 737.912 162.082 736.429 162.316C735.005 162.521 733.729 162.769 732.602 163.062V170.434H721.654V162.711C721.654 162.009 721.951 157.895 722.544 157.456C723.138 156.988 724.028 156.564 725.214 156.183C726.995 155.598 729.279 155.116 732.068 154.735C734.916 154.326 743.802 154.121 747.244 154.121C753.236 154.121 757.894 154.779 761.217 156.096C764.599 157.412 766.29 162.901 766.29 165.475ZM721.654 168.284H732.602V179.649C732.127 179.737 731.445 179.81 730.555 179.868C729.665 179.956 728.686 180 727.618 180C725.6 180 724.087 179.824 723.078 179.473C722.129 179.093 721.654 178.435 721.654 177.499V168.284ZM755.343 168.284H766.29V179.649C765.874 179.737 765.192 179.81 764.243 179.868C763.353 179.956 762.403 180 761.395 180C759.318 180 757.775 179.824 756.767 179.473C755.817 179.093 755.343 178.435 755.343 177.499V168.284Z" fill="#E6EDF6"/>
<path d="M777.273 158.222C777.273 157.374 777.866 155.476 779.053 154.891C780.299 154.306 781.842 154.013 783.681 154.013C785.58 154.013 787.093 154.306 788.22 154.891C789.407 155.476 790 157.374 790 158.222C790 159.041 789.407 160.939 788.22 161.554C787.093 162.139 785.58 162.431 783.681 162.431C781.842 162.431 780.299 162.139 779.053 161.554C777.866 160.939 777.273 159.041 777.273 158.222ZM778.163 168.153H789.199V179.649C788.724 179.737 788.042 179.81 787.152 179.868C786.262 179.956 785.283 180 784.215 180C782.198 180 780.685 179.824 779.676 179.473C778.667 179.093 778.163 178.435 778.163 177.499V168.153ZM789.199 170.917H778.163V164.585C778.638 164.497 779.32 164.424 780.21 164.365C781.159 164.278 782.168 164.234 783.236 164.234C785.313 164.234 786.826 164.424 787.775 164.804C788.724 165.155 789.199 165.813 789.199 166.779V170.917Z" fill="#E6EDF6"/>
<path fill-rule="evenodd" clip-rule="evenodd" d="M622.44 4C617.226 4 613 8.23076 613 13.4497V142.201C613 147.42 617.226 151.651 622.44 151.651H633.06C638.274 151.651 642.5 147.42 642.5 142.201V38.0582C642.5 32.8393 646.726 28.6085 651.94 28.6085H672C672 28.6085 708.875 28.6085 708.875 77.8255C708.875 127.042 672 127.042 672 127.042C665.509 127.042 661.499 134.131 664.839 139.703L669.25 147.063C670.956 149.909 674.029 151.651 677.345 151.651H731C731 151.651 790 151.651 790 108.586C790 93.8852 783.125 84.2027 774.068 77.8255C783.125 71.4483 790 61.7658 790 47.0649C790 4 731 4 731 4C724.509 4 720.499 11.0889 723.839 16.661L728.308 24.1173C729.983 26.9112 732.973 28.6292 736.202 29.0458C744.669 30.1387 760.5 33.9373 760.5 47.0649C760.5 64.9853 746.348 63.7775 737.648 64.9853C730.436 4 672 4 672 4H622.44ZM760.5 108.586C760.5 126.507 731 127.042 731 127.042H723.479C730.392 118.349 735.765 106.585 737.648 90.6657C746.348 91.8735 760.5 90.6657 760.5 108.586Z" fill="url(#paint0_linear_11_116)"/>
<defs>
<linearGradient id="paint0_linear_11_116" x1="613" y1="77.8255" x2="790" y2="77.8255" gradientUnits="userSpaceOnUse">
<stop stop-color="#2496FA"/>
<stop offset="0.413462" stop-color="#3041D8"/>
<stop offset="0.822115" stop-color="#55009A"/>
</linearGradient>
</defs>
</svg>
